<svg xmlns="http://www.w3.org/2000/svg" width="1200" height="630" viewBox="0 0 1200 630" role="img" aria-label="매일운세 오픈그래프 이미지">
  <defs>
    <linearGradient id="bg" x1="0%" y1="0%" x2="100%" y2="100%">
      <stop offset="0%" stop-color="#0b1220"/>
      <stop offset="55%" stop-color="#101a2f"/>
      <stop offset="100%" stop-color="#0b1220"/>
    </linearGradient>
    <radialGradient id="glow" cx="50%" cy="35%" r="55%">
      <stop offset="0%" stop-color="#f8d36a" stop-opacity="0.18"/>
      <stop offset="70%" stop-color="#f8d36a" stop-opacity="0"/>
    </radialGradient>
    <linearGradient id="gold" x1="0%" y1="0%" x2="0%" y2="100%">
      <stop offset="0%" stop-color="#ffe9a5"/>
      <stop offset="60%" stop-color="#f6c453"/>
      <stop offset="100%" stop-color="#cc9a2b"/>
    </linearGradient>
  </defs>

  <rect width="1200" height="630" fill="url(#bg)"/>
  <rect width="1200" height="630" fill="url(#glow)"/>

  <rect x="70" y="70" width="1060" height="490" rx="36" fill="none" stroke="#f6c453" stroke-opacity="0.28" stroke-width="2"/>
  <rect x="95" y="95" width="1010" height="440" rx="28" fill="none" stroke="#f6c453" stroke-opacity="0.12" stroke-width="1"/>

  <g opacity="0.22" fill="#f6c453">
    <circle cx="180" cy="150" r="2"/>
    <circle cx="260" cy="210" r="1.5"/>
    <circle cx="1020" cy="150" r="2"/>
    <circle cx="980" cy="230" r="1.5"/>
    <circle cx="220" cy="480" r="1.5"/>
    <circle cx="1000" cy="470" r="2"/>
  </g>

  <g transform="translate(160 185)">
    <circle cx="0" cy="0" r="46" fill="none" stroke="url(#gold)" stroke-width="4"/>
    <circle cx="0" cy="0" r="26" fill="url(#gold)" opacity="0.2"/>
    <path d="M0 -18 L4.5 -4.5 L18 0 L4.5 4.5 L0 18 L-4.5 4.5 L-18 0 L-4.5 -4.5 Z" fill="url(#gold)"/>
  </g>

  <g fill="#f7f3e8" font-family="Noto Sans KR, Apple SD Gothic Neo, Malgun Gothic, sans-serif" text-anchor="middle">
    <text x="600" y="300" font-size="96" font-weight="700" letter-spacing="6">매일운세</text>
    <text x="600" y="370" font-size="30" font-weight="400" opacity="0.9">오늘 나의 타로 · 별자리 · 사주 · 띠별 운세</text>
  </g>

  
</svg>
